<?xml version="1.0" standalone="no"?>
<!DOCTYPE svg PUBLIC "-//W3C//DTD SVG 20010904//EN"
 "http://www.w3.org/TR/2001/REC-SVG-20010904/DTD/svg10.dtd">
<svg version="1.0" xmlns="http://www.w3.org/2000/svg"
 width="1280.000000pt" height="885.000000pt" viewBox="0 0 1280.000000 885.000000"
 preserveAspectRatio="xMidYMid meet">
<g transform="translate(0.000000,885.000000) scale(0.100000,-0.100000)"
fill="#000000" stroke="none">
<path d="M2299 8846 c-3 -3 -53 -10 -112 -16 -59 -6 -118 -15 -131 -20 -13 -5
-75 -18 -139 -29 -223 -40 -385 -114 -627 -286 -167 -119 -205 -156 -220 -217
-27 -112 -157 -297 -252 -361 -67 -44 -243 -132 -327 -164 -36 -13 -77 -33
-92 -44 -16 -11 -53 -28 -84 -39 -30 -10 -81 -32 -113 -49 -31 -16 -82 -41
-112 -55 -57 -26 -90 -67 -90 -110 0 -28 92 -295 126 -363 23 -49 29 -54 77
-67 155 -44 497 -55 705 -23 63 9 118 15 123 11 34 -20 -45 -110 -136 -154
-35 -17 -97 -71 -202 -177 -84 -84 -153 -159 -153 -167 0 -11 15 -16 53 -18
l52 -3 12 -47 c15 -61 42 -99 99 -137 72 -47 137 -65 239 -66 l90 0 250 122
c327 159 441 195 505 158 36 -21 71 -18 122 9 50 26 58 24 117 -26 l33 -30
108 7 107 7 64 -57 c35 -32 82 -71 104 -87 37 -27 117 -141 149 -213 17 -37
46 -203 46 -261 0 -24 -4 -54 -10 -68 -19 -51 -81 -361 -87 -436 -3 -47 -1
-104 6 -140 22 -110 17 -101 323 -575 126 -194 188 -312 188 -354 0 -16 -19
-66 -41 -111 -77 -153 -275 -318 -624 -520 -262 -152 -318 -197 -402 -323 -71
-107 -83 -159 -83 -355 1 -111 5 -179 14 -204 17 -46 91 -150 161 -227 30 -32
55 -63 55 -69 0 -6 11 -24 25 -40 32 -38 94 -150 131 -235 19 -46 41 -77 63
-95 19 -14 70 -58 114 -98 43 -39 119 -95 168 -124 49 -29 92 -56 95 -61 3 -5
15 -9 27 -9 12 0 51 -14 87 -31 37 -17 93 -34 135 -39 105 -14 335 -12 364 3
32 16 53 76 54 157 1 56 -6 84 -52 205 -29 77 -58 143 -64 147 -6 3 -29 9 -53
13 -23 3 -48 13 -56 22 -21 26 -110 63 -151 63 -31 0 -39 4 -49 27 -20 46 -77
111 -134 153 -40 30 -56 50 -65 81 -15 48 -79 124 -112 133 -27 6 -47 44 -47
87 0 32 38 79 64 79 8 0 44 22 79 49 78 60 148 96 213 110 71 15 426 136 659
224 110 41 218 79 240 83 22 4 51 15 65 24 14 10 53 32 87 49 34 17 78 44 96
61 38 33 58 37 76 16 20 -23 7 -60 -119 -351 -28 -66 -58 -127 -66 -136 -8 -8
-14 -22 -14 -29 0 -7 -24 -66 -54 -129 -78 -168 -96 -234 -96 -348 0 -141 2
-145 131 -315 31 -40 63 -78 70 -85 24 -20 221 -91 284 -102 33 -6 110 -16
170 -21 61 -6 130 -17 155 -24 25 -8 97 -21 160 -30 63 -8 174 -26 245 -40 72
-13 182 -29 246 -35 108 -9 173 -22 293 -57 33 -9 100 -14 208 -14 l159 0 22
48 c26 57 34 175 17 255 -23 114 -126 267 -178 267 -12 0 -43 9 -70 19 -26 11
-69 22 -95 26 -25 4 -52 13 -58 21 -14 17 -53 18 -79 2 -16 -10 -24 -10 -40 0
-16 10 -24 10 -40 0 -17 -11 -27 -9 -69 15 -99 55 -214 52 -302 -8 -43 -31
-108 -33 -153 -6 -17 10 -59 29 -93 41 -35 12 -68 29 -75 37 -14 17 -4 38 192
368 75 127 153 260 173 296 40 72 106 152 141 171 14 8 113 14 296 19 222 5
282 9 312 23 82 36 560 118 801 137 72 6 140 15 150 21 10 5 65 13 120 17 100
7 326 57 490 107 106 33 390 77 507 78 l95 1 7 -75 c13 -149 125 -430 243
-612 39 -59 85 -133 103 -165 18 -32 56 -86 85 -120 150 -179 172 -203 182
-203 17 0 124 -99 139 -129 28 -53 299 -312 359 -342 23 -12 108 -88 193 -173
l151 -151 50 -130 c28 -71 56 -148 62 -170 17 -63 14 -136 -9 -178 -11 -20
-20 -48 -20 -62 0 -14 -8 -38 -18 -53 -11 -15 -36 -53 -56 -86 -21 -32 -64
-91 -96 -130 -75 -92 -336 -348 -375 -369 -40 -20 -73 -25 -235 -37 -209 -15
-286 -47 -408 -173 -62 -64 -72 -80 -72 -110 0 -49 -8 -65 -41 -83 -30 -15
-89 -88 -89 -109 0 -9 55 -54 107 -88 51 -32 332 -47 530 -27 54 5 175 14 268
20 228 15 349 34 402 66 60 35 76 64 78 138 1 71 12 91 88 163 29 27 64 70 79
94 15 24 101 122 192 218 92 95 166 177 166 181 0 4 31 42 69 84 37 42 86 107
107 144 21 36 47 73 57 81 9 9 17 21 17 29 0 24 68 162 116 234 l47 70 -6 160
-6 160 -73 78 c-40 42 -101 112 -136 156 -34 43 -80 102 -102 129 -92 115
-132 192 -150 286 -5 27 -22 66 -38 88 -16 22 -42 79 -57 126 -27 81 -28 91
-22 218 9 194 37 324 83 392 14 21 31 54 38 75 7 21 34 69 59 108 26 38 47 74
47 79 0 6 9 21 19 35 11 13 26 51 35 84 8 32 33 104 56 158 22 55 40 104 40
110 0 5 9 19 19 30 11 12 56 93 100 181 l80 160 12 120 c20 209 -3 703 -38
785 -8 19 -17 65 -20 101 -5 62 -4 67 24 100 16 19 36 46 45 60 19 29 205 195
253 224 17 10 53 40 80 66 28 26 95 82 150 124 55 43 122 103 148 134 27 31
71 82 98 113 27 32 138 137 247 235 108 97 256 236 327 308 72 72 162 156 200
187 74 59 253 170 295 183 34 10 168 78 260 131 79 45 125 87 156 142 16 29
17 34 4 42 -8 5 -28 10 -45 10 -16 0 -73 12 -124 25 -52 14 -118 25 -145 25
-53 0 -62 -2 -211 -45 -49 -14 -124 -34 -165 -45 -98 -27 -420 -188 -484 -242
-65 -56 -246 -258 -246 -274 0 -8 -12 -21 -27 -31 -16 -10 -61 -45 -101 -79
-78 -66 -215 -164 -229 -164 -11 0 -71 -62 -108 -113 -16 -21 -44 -47 -64 -57
-20 -10 -62 -41 -94 -69 -70 -61 -119 -90 -217 -129 -90 -35 -269 -86 -363
-103 -126 -23 -314 23 -657 161 -405 162 -728 248 -1158 307 -109 15 -209 18
-702 18 -400 0 -627 -4 -745 -14 -210 -17 -453 -18 -520 -2 -27 7 -104 34
-171 61 -127 51 -205 74 -292 84 -69 9 -258 75 -317 112 -26 16 -63 39 -83 52
-53 32 -117 49 -255 67 -164 22 -225 39 -316 86 -50 26 -105 45 -160 55 -113
21 -175 45 -268 106 -102 67 -264 231 -335 339 -63 97 -116 156 -325 370 -79
80 -143 151 -143 157 0 12 63 58 120 87 19 10 68 21 109 25 44 5 77 13 82 21
15 23 10 92 -10 149 -11 30 -25 93 -31 140 -6 47 -14 100 -16 118 -3 17 -14
41 -25 51 -25 23 -113 48 -199 56 -97 9 -105 12 -145 50 -21 19 -53 37 -73 41
-54 10 -242 -3 -291 -20 -60 -22 -85 -20 -187 11 -113 34 -238 38 -301 9 -39
-17 -44 -18 -82 -2 -69 27 -182 46 -277 46 -50 0 -93 -2 -95 -4z m3161 -2875
c0 -23 -25 -47 -35 -31 -10 16 4 50 21 50 8 0 14 -8 14 -19z"/>
</g>
</svg>
